<?xml version="1.0" standalone="no"?>
<!DOCTYPE svg PUBLIC "-//W3C//DTD SVG 20010904//EN"
 "http://www.w3.org/TR/2001/REC-SVG-20010904/DTD/svg10.dtd">
<svg version="1.0" xmlns="http://www.w3.org/2000/svg"
 width="300.000000pt" height="125.000000pt" viewBox="0 0 300.000000 125.000000"
 preserveAspectRatio="xMidYMid meet">
<metadata>
Created by potrace 1.10, written by Peter Selinger 2001-2011
</metadata>
<g transform="translate(0.000000,125.000000) scale(0.100000,-0.100000)"
fill="#000000" stroke="none">
<path d="M944 842 c-78 -28 -104 -48 -104 -80 0 -42 54 -83 125 -96 81 -15
110 -16 171 -5 181 31 219 116 79 175 -61 26 -207 29 -271 6z m208 -23 c72
-15 108 -38 108 -67 0 -78 -318 -92 -380 -17 -16 19 2 49 37 63 83 33 150 39
235 21z"/>
<path d="M1844 744 c6 -22 4 -25 -12 -20 -24 8 -44 -15 -44 -49 0 -36 18 -53
57 -53 l35 0 0 74 c0 69 -2 74 -21 74 -18 0 -20 -4 -15 -26z m4 -66 c-5 -32
-28 -35 -28 -4 0 17 5 26 16 26 10 0 14 -7 12 -22z"/>
<path d="M1390 745 c0 -9 9 -15 23 -15 21 0 22 -4 19 -55 -4 -51 -2 -55 18
-55 21 0 22 4 18 55 -4 52 -3 55 19 55 14 0 23 6 23 15 0 12 -13 15 -60 15
-47 0 -60 -3 -60 -15z"/>
<path d="M1993 731 c-6 -10 -8 -22 -3 -27 5 -5 10 -25 12 -44 2 -27 8 -36 26
-38 12 -2 22 2 22 9 0 8 4 8 13 2 6 -6 28 -11 47 -11 l35 -1 -3 44 c-2 24 -10
49 -18 56 -18 15 -64 3 -64 -16 0 -17 16 -20 25 -5 7 12 25 4 25 -11 0 -5 -11
-9 -24 -9 -13 0 -26 -7 -30 -15 -3 -8 -10 -15 -16 -15 -13 0 -13 47 0 55 11 7
-9 45 -25 45 -6 0 -15 -8 -22 -19z"/>
<path d="M1526 708 c-9 -12 -16 -30 -16 -39 0 -24 35 -51 61 -47 32 4 37 28 5
28 -13 0 -28 5 -31 10 -4 6 8 10 28 10 31 0 35 2 29 23 -10 42 -52 50 -76 15z"/>
<path d="M1620 674 c0 -41 4 -54 15 -54 11 0 15 11 15 35 0 22 6 38 15 41 26
10 16 31 -15 32 -30 1 -30 0 -30 -54z"/>
<path d="M1700 715 c-17 -21 -4 -32 20 -17 17 10 20 10 20 -3 0 -9 -9 -15 -24
-15 -27 0 -42 -26 -25 -46 6 -7 27 -12 47 -12 l37 0 -3 42 c-3 22 -9 47 -14
54 -14 17 -43 15 -58 -3z"/>
<path d="M1901 716 c-16 -19 4 -32 24 -16 9 7 15 8 20 0 3 -5 -1 -12 -9 -15
-9 -3 -23 -7 -31 -10 -21 -6 -19 -43 3 -48 9 -2 29 -5 45 -6 25 -1 27 2 27 38
0 59 -48 94 -79 57z"/>
<path d="M840 667 c0 -52 21 -73 100 -100 63 -22 232 -18 280 7 61 32 80 55
80 100 0 40 -1 41 -18 20 -35 -44 -80 -58 -199 -61 -122 -3 -188 14 -225 58
-18 21 -18 20 -18 -24z m360 -64 c-43 -19 -142 -28 -204 -19 -79 12 -50 21 57
18 56 -2 113 1 127 7 41 16 58 11 20 -6z"/>
<path d="M840 562 c0 -32 6 -45 28 -62 47 -37 94 -52 179 -56 94 -4 170 14
221 52 27 21 32 32 32 65 l0 41 -30 -26 c-45 -37 -102 -51 -210 -51 -107 1
-162 16 -197 53 l-23 25 0 -41z m110 -57 c30 -8 82 -15 115 -15 33 0 85 7 115
15 66 18 67 18 53 4 -16 -16 -113 -39 -168 -39 -49 0 -128 19 -163 39 -23 14
-16 13 48 -4z"/>
<path d="M1422 524 c-17 -11 -22 -25 -22 -58 0 -47 13 -66 46 -66 12 0 27 -7
34 -15 19 -23 24 -12 27 60 3 56 1 65 -19 79 -28 20 -38 20 -66 0z m56 -53 c4
-41 -11 -60 -33 -41 -15 13 -21 61 -8 74 17 16 38 -1 41 -33z"/>
<path d="M840 459 c0 -34 6 -51 23 -67 70 -66 269 -77 379 -21 44 23 58 45 58
95 l0 37 -20 -25 c-26 -34 -118 -62 -205 -62 -111 -1 -189 22 -219 65 -16 23
-16 23 -16 -22z m386 -58 c-12 -19 -99 -33 -183 -29 -141 7 -141 24 0 20 68
-2 133 1 147 7 32 12 43 13 36 2z"/>
<path d="M1532 453 l3 -48 43 -2 42 -2 0 50 c0 43 -3 49 -20 49 -18 0 -20 -5
-18 -36 2 -23 -2 -39 -9 -41 -9 -3 -13 8 -13 36 0 30 -4 41 -16 41 -12 0 -14
-10 -12 -47z"/>
<path d="M1638 475 c-8 -19 -8 -31 0 -51 10 -21 18 -25 45 -22 17 2 30 7 27
13 -3 5 -12 8 -22 7 -9 -2 -19 2 -23 8 -4 6 6 10 24 10 31 0 38 11 25 44 -10
27 -62 20 -76 -9z"/>
<path d="M1733 450 c-1 -44 1 -50 19 -50 17 0 20 5 15 30 -5 23 -2 32 14 40
17 10 21 7 34 -24 18 -41 19 -56 5 -56 -5 0 -10 -7 -10 -15 0 -18 24 -20 37
-2 5 6 19 38 31 70 20 55 21 57 3 57 -12 0 -22 -10 -26 -27 l-8 -28 -6 25 c-6
22 -13 25 -56 28 l-50 3 -2 -51z"/>
</g>
</svg>
